<svg width="323" height="290" viewBox="0 0 323 290" fill="none" xmlns="http://www.w3.org/2000/svg">
<g clip-path="url(#clip0_206_1273)">
<path d="M320.166 110.902C320.051 110.902 319.938 110.866 319.843 110.8L163.126 1.63914C162.649 1.30848 162.082 1.13178 161.502 1.13277C160.922 1.13376 160.356 1.31239 159.88 1.64467L4.29214 110.799C4.16908 110.886 4.01677 110.919 3.86871 110.893C3.72066 110.867 3.58898 110.784 3.50267 110.661C3.41635 110.538 3.38245 110.385 3.40844 110.237C3.43442 110.089 3.51816 109.957 3.64122 109.871L159.229 0.71648C159.895 0.251363 160.688 0.00134075 161.5 5.37724e-06C162.313 -0.00133 163.106 0.246084 163.774 0.709008L320.491 109.87C320.59 109.939 320.664 110.038 320.703 110.152C320.742 110.266 320.743 110.39 320.707 110.505C320.671 110.62 320.599 110.721 320.502 110.792C320.404 110.863 320.287 110.902 320.166 110.902Z" fill="#3F3D56"/>
<path d="M13.1829 114.771L161.656 4.7149L311.256 122.602L169.306 206.767L92.2397 189.197L13.1829 114.771Z" fill="#E6E6E6"/>
<path d="M98.7454 258.252H98.7448L25.3953 258.252L25.3946 258.252C25.01 258.253 24.629 258.177 24.2735 258.03C23.9179 257.883 23.5948 257.668 23.3227 257.396C23.0505 257.124 22.8345 256.801 22.6872 256.446C22.5399 256.09 22.464 255.709 22.464 255.325C22.464 254.94 22.5399 254.559 22.6872 254.203C22.8345 253.848 23.0505 253.525 23.3227 253.253C23.5948 252.981 23.9179 252.766 24.2735 252.619C24.629 252.472 25.01 252.397 25.3946 252.397H25.3953L98.7448 252.397L98.7454 252.397C99.1301 252.397 99.5111 252.472 99.8666 252.619C100.222 252.766 100.545 252.981 100.817 253.253C101.09 253.525 101.306 253.848 101.453 254.203C101.6 254.559 101.676 254.94 101.676 255.325C101.676 255.709 101.6 256.09 101.453 256.446C101.306 256.801 101.09 257.124 100.817 257.396C100.545 257.668 100.222 257.883 99.8666 258.03C99.5111 258.177 99.1301 258.253 98.7454 258.252Z" fill="#FDFD96" stroke="#3A3A3A"/>
<path d="M51.7121 243.516H51.7115L25.3953 243.516L25.3946 243.516C25.01 243.517 24.629 243.441 24.2735 243.294C23.9179 243.148 23.5948 242.932 23.3227 242.66C23.0505 242.388 22.8345 242.065 22.6872 241.71C22.5399 241.354 22.464 240.973 22.464 240.589C22.464 240.204 22.5399 239.823 22.6872 239.468C22.8345 239.112 23.0505 238.789 23.3227 238.517C23.5948 238.245 23.9179 238.03 24.2735 237.883C24.629 237.736 25.01 237.661 25.3946 237.661H25.3953L51.7115 237.661L51.7121 237.661C52.0968 237.661 52.4778 237.736 52.8333 237.883C53.1888 238.03 53.5119 238.245 53.7841 238.517C54.0563 238.789 54.2722 239.112 54.4195 239.468C54.5669 239.823 54.6427 240.204 54.6427 240.589C54.6427 240.973 54.5669 241.354 54.4195 241.71C54.2722 242.065 54.0563 242.388 53.7841 242.66C53.5119 242.932 53.1888 243.148 52.8333 243.294C52.4778 243.441 52.0968 243.517 51.7121 243.516Z" fill="#FDFD96" stroke="#3A3A3A"/>
<path d="M163.744 176.071C163.187 176.072 162.634 175.964 162.118 175.753L70.5501 137.752V18.8023C70.5513 17.7504 70.9696 16.742 71.7133 15.9983C72.4569 15.2545 73.4651 14.8361 74.5168 14.8349H250.183C251.235 14.8361 252.243 15.2545 252.987 15.9983C253.731 16.742 254.149 17.7504 254.15 18.8023V137.835L253.978 137.908L165.419 175.734C164.889 175.957 164.319 176.072 163.744 176.071Z" fill="white"/>
<path d="M163.744 176.354C163.15 176.355 162.561 176.24 162.01 176.015L70.2668 137.941V18.8023C70.2681 17.6753 70.7162 16.5948 71.513 15.7979C72.3097 15.001 73.39 14.5528 74.5168 14.5515H250.183C251.31 14.5528 252.39 15.001 253.187 15.7979C253.984 16.5948 254.432 17.6753 254.433 18.8023V138.022L165.53 175.995C164.965 176.233 164.358 176.355 163.744 176.354ZM71.4001 137.184L162.443 174.967C163.292 175.312 164.243 175.306 165.088 174.951L253.3 137.274V18.8023C253.299 17.9758 252.97 17.1835 252.386 16.5991C251.802 16.0148 251.01 15.686 250.183 15.685H74.5168C73.6905 15.686 72.8983 16.0148 72.3141 16.5991C71.7298 17.1835 71.4011 17.9758 71.4001 18.8023L71.4001 137.184Z" fill="#3F3D56"/>
<path d="M319.033 109.768H318.92L253.867 137.551L164.86 175.564C164.513 175.711 164.139 175.787 163.762 175.789C163.385 175.791 163.011 175.718 162.662 175.576L70.8333 137.472L4.18193 109.814L4.08011 109.768H3.96667C2.915 109.769 1.90674 110.188 1.1631 110.932C0.419454 111.675 0.00116691 112.684 0 113.736V286.033C0.00116841 287.084 0.419454 288.093 1.1631 288.837C1.90674 289.58 2.915 289.999 3.96667 290H319.033C320.085 289.999 321.093 289.58 321.837 288.837C322.581 288.093 322.999 287.084 323 286.033V113.736C322.999 112.684 322.581 111.675 321.837 110.932C321.093 110.188 320.085 109.769 319.033 109.768ZM321.867 286.033C321.866 286.784 321.568 287.505 321.036 288.036C320.505 288.567 319.785 288.866 319.033 288.866H3.96667C3.21531 288.866 2.49482 288.567 1.96353 288.036C1.43224 287.505 1.13363 286.784 1.13333 286.033V113.736C1.13436 113.003 1.41857 112.299 1.92654 111.771C2.43451 111.243 3.12692 110.931 3.85903 110.902L70.8333 138.696L162.225 176.624C163.215 177.027 164.323 177.021 165.308 176.607L253.867 138.781L319.147 110.902C319.878 110.933 320.568 111.246 321.075 111.773C321.581 112.301 321.865 113.004 321.867 113.736V286.033Z" fill="#3F3D56"/>
<path d="M162.828 141.842L162.83 141.842C165.164 141.848 167.468 141.317 169.564 140.289C171.659 139.261 173.49 137.763 174.913 135.914L238.485 52.9919C240.932 49.7931 242.01 45.7543 241.483 41.7615C240.978 37.9345 239.038 34.4494 236.066 32.0055L236.037 32.0437L236.031 32.0514L235.231 31.4507L235.237 31.443L235.272 31.3956C233.786 30.3303 232.119 29.5413 230.35 29.068C228.424 28.5523 226.414 28.4213 224.437 28.6823C222.46 28.9434 220.553 29.5914 218.827 30.5894C217.1 31.5874 215.586 32.9159 214.373 34.4989L213.976 34.1947L214.373 34.4989L160.325 104.997L160.021 105.394L159.624 105.09L136.753 87.5496C135.17 86.3364 133.364 85.4469 131.437 84.932C129.51 84.4171 127.501 84.2868 125.524 84.5486C123.546 84.8103 121.64 85.459 119.914 86.4576C118.187 87.4562 116.674 88.7852 115.461 90.3686C114.248 91.952 113.359 93.7589 112.844 95.6861C112.329 97.6133 112.199 99.623 112.461 101.601C112.722 103.578 113.371 105.485 114.369 107.212C115.368 108.938 116.697 110.452 118.28 111.665L153.585 138.701L153.589 138.704L153.753 138.827L162.828 141.842ZM162.828 141.842C159.556 141.848 156.371 140.79 153.753 138.827L162.828 141.842Z" fill="#FDFD96" stroke="#3A3A3A"/>
</g>
<defs>
<clipPath id="clip0_206_1273">
<rect width="323" height="290" fill="white"/>
</clipPath>
</defs>
</svg>
