<svg width="549" height="458" viewBox="0 0 549 458" fill="none" xmlns="http://www.w3.org/2000/svg">
<g clip-path="url(#clip0_74_1148)">
<path d="M25.5094 436.426C33.1246 450.539 49.2868 456.598 49.2868 456.598C49.2868 456.598 53.1023 439.774 45.4871 425.661C37.8719 411.547 21.7098 405.488 21.7098 405.488C21.7098 405.488 17.8943 422.312 25.5094 436.426Z" fill="#2F2E41"/>
<path d="M30.4867 432.211C37.2636 436.286 41.9724 442.381 44.9916 447.48C46.4995 450.026 47.5814 452.317 48.2857 453.969C48.6378 454.795 48.8954 455.461 49.0644 455.919C49.0833 455.97 49.101 456.019 49.1176 456.064C49.0692 456.071 49.0179 456.078 48.9638 456.086C48.4797 456.151 47.7703 456.236 46.8751 456.312C45.0843 456.464 42.5525 456.582 39.5948 456.443C33.6726 456.166 26.0781 454.864 19.3012 450.79C12.5243 446.715 7.81544 440.62 4.7963 435.521C3.2884 432.974 2.20649 430.684 1.50212 429.032C1.15002 428.206 0.892496 427.54 0.72345 427.082C0.704606 427.031 0.686861 426.982 0.670209 426.936C0.718626 426.93 0.769914 426.922 0.824016 426.915C1.30819 426.85 2.01758 426.765 2.91275 426.689C4.70354 426.537 7.23531 426.419 10.1931 426.557C16.1153 426.834 23.7098 428.136 30.4867 432.211Z" fill="#FDFD96" stroke="#3A3A3A"/>
<path d="M338.988 21.9872H253.207V23.2118H338.988V21.9872Z" fill="#F2F2F2"/>
<path d="M315.704 22.9056H314.479V34.2336H315.704V22.9056Z" fill="#F2F2F2"/>
<path d="M278.329 22.9056H277.104V34.2336H278.329V22.9056Z" fill="#F2F2F2"/>
<path d="M382.492 80.7701H296.711V81.9948H382.492V80.7701Z" fill="#F2F2F2"/>
<path d="M321.22 69.7483H319.994V81.0763H321.22V69.7483Z" fill="#F2F2F2"/>
<path d="M358.595 69.7483H357.369V81.0763H358.595V69.7483Z" fill="#F2F2F2"/>
<path d="M496.459 108.325H410.678V109.549H496.459V108.325Z" fill="#F2F2F2"/>
<path d="M435.186 97.3029H433.961V108.631H435.186V97.3029Z" fill="#F2F2F2"/>
<path d="M472.561 97.3029H471.336V108.631H472.561V97.3029Z" fill="#F2F2F2"/>
<path d="M487.881 392.443H402.1V393.667H487.881V392.443Z" fill="#F2F2F2"/>
<path d="M426.608 381.421H425.383V392.749H426.608V381.421Z" fill="#F2F2F2"/>
<path d="M463.983 381.421H462.758V392.749H463.983V381.421Z" fill="#F2F2F2"/>
<path d="M341.439 195.887H255.658V197.111H341.439V195.887Z" fill="#F2F2F2"/>
<path d="M280.167 184.865H278.941V196.193H280.167V184.865Z" fill="#F2F2F2"/>
<path d="M317.544 184.865H316.318V196.193H317.544V184.865Z" fill="#F2F2F2"/>
<path d="M368.398 343.457H282.617V344.681H368.398V343.457Z" fill="#F2F2F2"/>
<path d="M307.126 332.435H305.9V343.763H307.126V332.435Z" fill="#F2F2F2"/>
<path d="M344.503 332.435H343.277V343.763H344.503V332.435Z" fill="#F2F2F2"/>
<path d="M505.648 298.757H419.867V299.982H505.648V298.757Z" fill="#F2F2F2"/>
<path d="M444.376 287.735H443.15V299.063H444.376V287.735Z" fill="#F2F2F2"/>
<path d="M481.753 287.735H480.527V299.063H481.753V287.735Z" fill="#F2F2F2"/>
<path d="M221.842 429.963H76.7578V428.921H220.798V378.33H88.9547L82.5499 364.996L83.491 364.545L89.6115 377.287H221.842V429.963Z" fill="#2F2E41"/>
<path d="M96.067 455.519C102.12 455.519 107.027 450.615 107.027 444.567C107.027 438.518 102.12 433.614 96.067 433.614C90.0142 433.614 85.1074 438.518 85.1074 444.567C85.1074 450.615 90.0142 455.519 96.067 455.519Z" fill="#3F3D56"/>
<path d="M204.098 455.519C210.151 455.519 215.058 450.615 215.058 444.567C215.058 438.518 210.151 433.614 204.098 433.614C198.045 433.614 193.139 438.518 193.139 444.567C193.139 450.615 198.045 455.519 204.098 455.519Z" fill="#3F3D56"/>
<path d="M331.439 218.737C335.186 218.737 338.223 215.702 338.223 211.957C338.223 208.213 335.186 205.177 331.439 205.177C327.692 205.177 324.654 208.213 324.654 211.957C324.654 215.702 327.692 218.737 331.439 218.737Z" fill="#3F3D56"/>
<path d="M237.359 361.119H74.2837L38.998 245.858H273.698L273.485 246.536L237.359 361.119ZM75.0559 360.076H236.594L272.275 246.901H40.4088L75.0559 360.076Z" fill="#2F2E41"/>
<path d="M224.63 355.122H81.3951L50.4023 252.899H256.548L256.36 253.5L224.63 355.122Z" fill="#F2F2F2"/>
<path d="M276.622 235.561L275.613 235.293L282.501 209.349H322.566V210.393H283.304L276.622 235.561Z" fill="#2F2E41"/>
<path d="M261.971 280.801H50.4023V281.844H261.971V280.801Z" fill="#2F2E41"/>
<path d="M249.854 319.231H62.166V320.274H249.854V319.231Z" fill="#2F2E41"/>
<path d="M156.868 246.379H155.824V360.598H156.868V246.379Z" fill="#2F2E41"/>
<path d="M203.6 246.347L196.107 360.562L197.149 360.631L204.642 246.415L203.6 246.347Z" fill="#2F2E41"/>
<path d="M109.114 246.345L108.072 246.413L115.521 360.632L116.563 360.564L109.114 246.345Z" fill="#2F2E41"/>
<path d="M549 456.181H0V457.405H549V456.181Z" fill="#2F2E41"/>
<path d="M364.822 37.8881C364.822 37.8881 373.779 63.3646 368.267 67.284C362.755 71.2035 386.87 103.212 386.87 103.212L415.809 95.3735L399.961 68.5905C399.961 68.5905 397.894 41.8076 397.894 37.8881C397.894 33.9686 364.822 37.8881 364.822 37.8881Z" fill="#A0616A"/>
<path opacity="0.1" d="M364.822 37.8881C364.822 37.8881 373.779 63.3646 368.267 67.284C362.755 71.2035 386.87 103.212 386.87 103.212L415.809 95.3735L399.961 68.5905C399.961 68.5905 397.894 41.8076 397.894 37.8881C397.894 33.9686 364.822 37.8881 364.822 37.8881Z" fill="black"/>
<path d="M349.787 219.49C349.787 219.49 347.172 252.152 349.787 269.136C352.402 286.12 356.324 333.154 356.324 333.154C356.324 333.154 356.324 421.995 370.705 423.301C385.085 424.608 395.544 425.914 396.851 420.688C398.159 415.462 390.315 412.849 394.237 410.236C398.159 407.624 399.466 398.478 394.237 388.026C389.007 377.574 394.237 271.749 394.237 271.749L419.076 338.38C419.076 338.38 421.691 393.252 424.305 401.091C426.92 408.93 421.691 423.301 430.842 424.608C439.994 425.914 450.452 418.075 455.682 415.462C460.911 412.849 447.838 412.849 450.452 411.543C453.067 410.236 460.911 406.317 458.296 405.01C455.682 403.704 453.067 340.993 453.067 340.993C453.067 340.993 445.877 207.078 436.725 201.852C427.574 196.626 421.691 205.627 421.691 205.627L349.787 219.49Z" fill="#2F2E41"/>
<path d="M373.319 418.075V428.527C373.319 428.527 361.553 456.939 373.319 456.939C385.085 456.939 394.237 459.883 394.237 455.964V420.688L373.319 418.075Z" fill="#2F2E41"/>
<path d="M450.453 418.057V428.509C450.453 428.509 462.219 456.92 450.453 456.92C438.687 456.92 429.535 459.864 429.535 455.945V420.67L450.453 418.057Z" fill="#2F2E41"/>
<path d="M383.124 56.8321C396.12 56.8321 406.656 46.3033 406.656 33.3153C406.656 20.3274 396.12 9.79858 383.124 9.79858C370.128 9.79858 359.592 20.3274 359.592 33.3153C359.592 46.3033 370.128 56.8321 383.124 56.8321Z" fill="#A0616A"/>
<path d="M375.935 77.0826C375.935 77.0826 382.472 96.6799 392.93 92.7605L403.389 88.841L421.692 214.264C421.692 214.264 407.311 235.167 386.394 222.103C365.476 209.038 375.935 77.0826 375.935 77.0826Z" fill="#FDFD96"/>
<path d="M394.236 73.1632L400.119 60.7516C400.119 60.7516 434.764 77.0827 439.993 82.3086C445.223 87.5345 445.223 95.3735 445.223 95.3735L436.071 128.036C436.071 128.036 438.686 199.892 438.686 202.505C438.686 205.118 447.837 219.49 441.301 214.264C434.764 209.038 433.457 203.812 428.227 211.651C422.998 219.49 411.232 228.635 411.232 228.635L394.236 73.1632Z" fill="#3F3D56"/>
<path d="M439.995 167.23L436.073 203.812C436.073 203.812 412.541 224.716 417.77 226.022C422.999 227.329 425.614 222.103 425.614 222.103C425.614 222.103 434.765 231.248 439.995 226.022C445.224 220.796 458.298 171.15 458.298 171.15L439.995 167.23Z" fill="#A0616A"/>
<path d="M383.625 0.079523C378.408 -0.10685 372.826 -0.199042 368.427 2.61038C366.404 4.02031 364.628 5.75678 363.175 7.74871C358.891 13.1607 355.189 19.9702 356.781 26.685L358.629 25.9647C358.629 27.7571 358.23 29.527 357.462 31.1465C357.722 30.3903 358.593 31.6128 358.36 32.3778L356.324 39.0526C359.671 37.8264 363.834 40.309 364.344 43.8346C364.576 36.0818 365.381 27.1919 371.674 22.6523C374.848 20.363 378.864 19.6642 382.729 19.0436C386.294 18.4711 390.031 17.9251 393.446 19.098C396.86 20.2709 399.768 23.7609 398.994 27.2853C400.569 26.7433 402.33 27.8399 403.108 29.3113C403.886 30.7826 403.927 32.5183 403.95 34.1823C405.628 35.3677 407.538 33.0139 408.222 31.0772C409.828 26.5311 411.255 21.6918 410.39 16.949C409.525 12.2062 405.658 7.67373 400.834 7.65764C401.419 7.0149 401.732 6.16976 401.705 5.30097L397.729 4.96523C398.738 4.8224 399.667 4.33328 400.355 3.58166C398.758 5.33715 386.207 0.171745 383.625 0.079523Z" fill="#2F2E41"/>
<path d="M382.471 69.2438C382.471 69.2438 371.828 58.8215 367.998 59.4599C364.168 60.0984 358.939 69.2438 358.939 69.2438C358.939 69.2438 327.562 79.6957 328.87 90.1475C330.177 100.599 344.558 151.552 344.558 151.552C344.558 151.552 356.324 212.957 345.865 219.49C335.407 226.022 395.544 243.006 396.851 235.167C398.159 227.329 400.774 148.939 396.851 137.181C392.929 125.423 382.471 69.2438 382.471 69.2438Z" fill="#3F3D56"/>
<path d="M428.229 90.1475H444.394C444.394 90.1475 455.683 139.794 456.99 145.02C458.297 150.246 460.912 175.069 459.605 175.069C458.297 175.069 432.151 169.843 432.151 173.763L428.229 90.1475Z" fill="#3F3D56"/>
<path d="M427.682 213.088H365.797C359.758 185.326 359.253 158.502 365.797 132.874H427.682C417.695 158.041 417.071 184.681 427.682 213.088Z" fill="#F2F2F2"/>
<path d="M340.637 178.989L358.939 186.827C358.939 186.827 394.238 192.053 394.238 177.682C394.238 163.311 358.939 171.15 358.939 171.15L347.173 167.39L340.637 178.989Z" fill="#A0616A"/>
<path d="M344.559 82.3086L328.87 86.2281L317.104 155.472C317.104 155.472 313.182 173.763 319.719 175.069C326.256 176.376 344.559 186.827 344.559 186.827C344.559 186.827 347.173 167.23 352.403 167.23L339.329 156.778L347.173 111.051L344.559 82.3086Z" fill="#3F3D56"/>
<path d="M122.697 216.094H36.916V217.318H122.697V216.094Z" fill="#F2F2F2"/>
<path d="M61.4247 205.072H60.1992V216.4H61.4247V205.072Z" fill="#F2F2F2"/>
<path d="M98.8016 205.072H97.5762V216.4H98.8016V205.072Z" fill="#F2F2F2"/>
<path d="M152.721 34.8459H66.9395V36.0706H152.721V34.8459Z" fill="#F2F2F2"/>
<path d="M129.436 35.7644H128.211V47.0924H129.436V35.7644Z" fill="#F2F2F2"/>
<path d="M92.0614 35.7644H90.8359V47.0924H92.0614V35.7644Z" fill="#F2F2F2"/>
<path d="M239.115 155.474H153.334V156.698H239.115V155.474Z" fill="#F2F2F2"/>
<path d="M215.831 156.392H214.605V167.72H215.831V156.392Z" fill="#F2F2F2"/>
<path d="M178.454 156.392H177.229V167.72H178.454V156.392Z" fill="#F2F2F2"/>
<path d="M93.2871 154.861H7.50586V156.086H93.2871V154.861Z" fill="#F2F2F2"/>
<path d="M70.0028 155.78H68.7773V167.108H70.0028V155.78Z" fill="#F2F2F2"/>
<path d="M32.6258 155.78H31.4004V167.108H32.6258V155.78Z" fill="#F2F2F2"/>
<path d="M196.225 93.6289H110.443V94.8536H196.225V93.6289Z" fill="#F2F2F2"/>
<path d="M134.952 82.6072H133.727V93.9352H134.952V82.6072Z" fill="#F2F2F2"/>
<path d="M172.327 82.6072H171.102V93.9352H172.327V82.6072Z" fill="#F2F2F2"/>
</g>
<defs>
<clipPath id="clip0_74_1148">
<rect width="549" height="458" fill="white"/>
</clipPath>
</defs>
</svg>
