<svg width="336" height="291" viewBox="0 0 336 291" fill="none" xmlns="http://www.w3.org/2000/svg">
<path d="M278.978 290.732L34.0961 290.817C21.7938 290.821 10.7739 284.464 4.61905 273.812C1.54126 268.485 0.00202916 262.642 2.00396e-06 256.797C-0.00202515 250.954 1.53391 245.109 4.60727 239.78L126.97 17.0254C133.119 6.36842 144.134 0.00425608 156.436 2.13378e-06C168.739 -0.00425182 179.759 6.35229 185.914 17.005L308.447 239.703C311.517 245.016 313.052 250.852 313.053 256.693C313.052 262.533 311.517 268.378 308.443 273.706C302.296 284.363 291.28 290.728 278.978 290.732ZM3.07818 256.793C3.07778 262.113 30.0997 250.65 32.8991 255.495C38.4987 265.186 22.9026 287.749 34.095 287.745C34.095 287.745 300.19 281.866 305.783 272.172C308.579 267.324 309.976 262.007 309.974 256.69C309.973 251.373 308.572 246.057 305.771 241.212L183.238 18.5139C177.655 8.85082 167.63 3.06758 156.437 3.07145C145.25 3.07532 3.0786 251.473 3.07818 256.793Z" fill="#3F3D56"/>
<path d="M223.108 257.215C285.023 257.215 335.215 207.023 335.215 145.108C335.215 83.1923 285.023 33 223.108 33C161.192 33 111 83.1923 111 145.108C111 207.023 161.192 257.215 223.108 257.215Z" fill="#F95F5F"/>
<path d="M223.128 213.831C228.813 213.831 233.421 209.223 233.421 203.538C233.421 197.853 228.813 193.245 223.128 193.245C217.443 193.245 212.835 197.853 212.835 203.538C212.835 209.223 217.443 213.831 223.128 213.831Z" fill="white"/>
<path d="M223.084 76.3842C222.138 82.6672 223.833 83.9819 223.842 111.069C223.851 138.155 229.472 174.472 223.118 174.474C216.764 174.476 214.44 99.5268 192.378 92.8933C166.438 85.0942 226.145 56.0451 223.084 76.3842Z" fill="white"/>
</svg>
