<svg width="351" height="343" viewBox="0 0 351 343" fill="none" xmlns="http://www.w3.org/2000/svg">
<g clip-path="url(#clip0_77_1777)">
<path d="M222.829 77.1396H128.25C126.095 77.1422 124.029 78.0005 122.505 79.5263C120.981 81.052 120.123 83.1205 120.121 85.2782V295.715L119.037 296.046L95.8349 303.159C94.7353 303.495 93.5476 303.38 92.5325 302.84C91.5174 302.299 90.7579 301.378 90.4207 300.278L21.406 74.595C21.0701 73.4941 21.1846 72.3048 21.7242 71.2885C22.2639 70.2721 23.1845 69.5118 24.2839 69.1747L60.0378 58.2147L163.69 26.4525L199.443 15.4926C199.988 15.3249 200.559 15.2663 201.126 15.3202C201.693 15.374 202.243 15.5392 202.746 15.8063C203.249 16.0734 203.695 16.4371 204.057 16.8767C204.419 17.3163 204.691 17.8232 204.858 18.3682L222.499 76.0545L222.829 77.1396Z" fill="#F2F2F2"/>
<path d="M243.468 76.0547L222.207 6.52945C221.853 5.37103 221.275 4.29374 220.505 3.35914C219.735 2.42455 218.789 1.65097 217.72 1.0826C216.652 0.514235 215.482 0.162216 214.277 0.0466761C213.073 -0.068864 211.858 0.0543382 210.701 0.40923L160.433 15.8129L56.7865 47.5805L6.51874 62.9895C4.18356 63.7074 2.22829 65.3235 1.08209 67.483C-0.0640984 69.6426 -0.307566 72.1693 0.405144 74.5083L73.0726 312.117C73.6516 314.005 74.8198 315.658 76.4059 316.833C77.9919 318.007 79.9123 318.642 81.8852 318.644C82.7984 318.645 83.7063 318.507 84.5787 318.237L119.037 307.679L120.121 307.342V306.208L119.037 306.539L84.259 317.201C82.1978 317.83 79.9715 317.615 78.0685 316.603C76.1655 315.591 74.7411 313.864 74.1079 311.802L1.44595 74.1882C1.1322 73.1665 1.02285 72.0929 1.12415 71.0288C1.22546 69.9647 1.53543 68.9311 2.03633 67.9871C2.53723 67.0432 3.21922 66.2074 4.04324 65.5276C4.86725 64.8479 5.8171 64.3376 6.8384 64.0258L57.1062 48.6168L160.753 16.8546L211.021 1.44555C211.795 1.20888 212.601 1.08821 213.411 1.08745C215.149 1.09136 216.84 1.65236 218.237 2.68827C219.633 3.72419 220.662 5.18059 221.172 6.84415L242.336 76.0547L242.672 77.1398H243.799L243.468 76.0547Z" fill="#3F3D56"/>
<path d="M55.3189 42.9244L55.3189 42.9244C55.1505 42.3739 55.0921 41.7957 55.1469 41.2226C55.2018 40.6495 55.3689 40.0929 55.6386 39.5846C55.9084 39.0762 56.2755 38.6261 56.7191 38.2598C57.1626 37.8936 57.6738 37.6185 58.2234 37.4501L58.2235 37.45L153.577 8.22519C154.687 7.88605 155.886 8.0017 156.911 8.54682C157.937 9.09195 158.704 10.0221 159.045 11.1332L166.025 33.9595C166.364 35.0713 166.248 36.2723 165.704 37.2988C165.159 38.3252 164.23 39.0934 163.121 39.4348L67.7672 68.6596L67.7669 68.6597C67.3527 68.787 66.922 68.8518 66.4888 68.852C65.5513 68.8513 64.6386 68.5499 63.8847 67.9918C63.1307 67.4337 62.5751 66.6484 62.2995 65.7509L55.3189 42.9244Z" fill="#FDFD96" stroke="#303841"/>
<path d="M113.398 13.5397C113.398 19.2571 108.768 23.8911 103.058 23.8911C97.3484 23.8911 92.7188 19.2571 92.7188 13.5397C92.7188 7.82221 97.3484 3.18823 103.058 3.18823C108.768 3.18823 113.398 7.82221 113.398 13.5397Z" fill="#FDFD96" stroke="#303841"/>
<path d="M109.421 13.5397C109.421 17.0591 106.571 19.9112 103.057 19.9112C99.5431 19.9112 96.6934 17.0591 96.6934 13.5397C96.6934 10.0203 99.5431 7.16821 103.057 7.16821C106.571 7.16821 109.421 10.0203 109.421 13.5397Z" fill="white" stroke="#303841"/>
<path d="M326.611 315.871H143.425C142.204 315.87 141.033 315.384 140.169 314.519C139.306 313.654 138.82 312.482 138.818 311.26V91.5177C138.82 90.295 139.306 89.1228 140.169 88.2582C141.033 87.3936 142.204 86.9072 143.425 86.9059H326.611C327.833 86.9073 329.004 87.3936 329.867 88.2582C330.731 89.1228 331.217 90.295 331.218 91.5177V311.26C331.217 312.482 330.731 313.654 329.867 314.519C329.004 315.384 327.833 315.87 326.611 315.871Z" fill="#E6E6E6"/>
<path d="M242.335 76.0544H128.251C125.808 76.0579 123.467 77.0308 121.74 78.7598C120.012 80.4889 119.041 82.8329 119.037 85.2782V306.539L120.121 306.208V85.2782C120.124 83.1205 120.981 81.0519 122.505 79.5262C124.029 78.0005 126.095 77.1422 128.251 77.1396H242.672L242.335 76.0544ZM341.787 76.0544H128.251C125.808 76.0579 123.467 77.0308 121.74 78.7598C120.012 80.4889 119.041 82.8329 119.037 85.2782V333.776C119.041 336.221 120.012 338.566 121.74 340.295C123.467 342.024 125.808 342.997 128.251 343H341.787C344.23 342.997 346.571 342.024 348.298 340.295C350.025 338.566 350.997 336.221 351.001 333.776V85.2782C350.997 82.8329 350.025 80.4889 348.298 78.7598C346.571 77.0308 344.23 76.0579 341.787 76.0544ZM349.917 333.776C349.914 335.934 349.057 338.003 347.533 339.528C346.009 341.054 343.942 341.912 341.787 341.915H128.251C126.095 341.912 124.029 341.054 122.505 339.528C120.981 338.003 120.124 335.934 120.121 333.776V85.2782C120.124 83.1205 120.981 81.0519 122.505 79.5262C124.029 78.0005 126.095 77.1422 128.251 77.1396H341.787C343.942 77.1422 346.009 78.0005 347.533 79.5262C349.057 81.0519 349.914 83.1205 349.917 85.2782V333.776Z" fill="#3F3D56"/>
<path d="M284.879 99.4276H185.158C183.997 99.4263 182.884 98.9641 182.063 98.1424C181.242 97.3206 180.781 96.2064 180.779 95.0441V71.1715C180.781 70.0092 181.243 68.895 182.063 68.0733C182.884 67.2516 183.997 66.7895 185.157 66.7881H284.879C286.04 66.7895 287.153 67.2516 287.973 68.0733C288.794 68.8951 289.256 70.0094 289.257 71.1718V95.0439C289.256 96.2063 288.794 97.3206 287.973 98.1424C287.153 98.9641 286.04 99.4263 284.879 99.4276Z" fill="#FDFD96" stroke="#303841"/>
<path d="M245.359 57.0645C245.359 62.7819 240.729 67.4159 235.019 67.4159C229.309 67.4159 224.68 62.7819 224.68 57.0645C224.68 51.347 229.309 46.713 235.019 46.713C240.729 46.713 245.359 51.347 245.359 57.0645Z" fill="#FDFD96" stroke="#303841"/>
<path d="M241.12 57.0644C241.12 60.4391 238.388 63.1739 235.018 63.1739C231.649 63.1739 228.916 60.4391 228.916 57.0644C228.916 53.6896 231.649 50.9548 235.018 50.9548C238.388 50.9548 241.12 53.6896 241.12 57.0644Z" fill="white" stroke="#303841"/>
</g>
<defs>
<clipPath id="clip0_77_1777">
<rect width="351" height="343" fill="white"/>
</clipPath>
</defs>
</svg>
