<svg width="611" height="465" viewBox="0 0 611 465" fill="none" xmlns="http://www.w3.org/2000/svg">
<g clip-path="url(#clip0_74_1389)">
<path d="M244.491 96.4303H242.262V35.351C242.262 30.7087 241.348 26.1118 239.572 21.8228C237.796 17.5338 235.193 13.6367 231.911 10.3541C228.629 7.07145 224.733 4.46751 220.446 2.69095C216.158 0.914391 211.562 3.93337e-06 206.921 0H77.5538C68.1808 -1.78732e-05 59.1917 3.72443 52.564 10.354C45.9363 16.9836 42.2129 25.9753 42.2129 35.3509V370.437C42.2129 375.079 43.127 379.676 44.903 383.965C46.6791 388.254 49.2823 392.151 52.564 395.434C55.8457 398.716 59.7416 401.32 64.0294 403.097C68.3171 404.873 72.9127 405.788 77.5537 405.788H206.921C216.294 405.788 225.283 402.063 231.911 395.434C238.539 388.804 242.262 379.812 242.262 370.437V139.908H244.491V96.4303Z" fill="#3F3D56"/>
<path d="M208.348 9.19714H191.461C192.237 11.1016 192.534 13.1679 192.324 15.2139C192.114 17.26 191.405 19.2231 190.258 20.9302C189.111 22.6373 187.562 24.036 185.747 25.0032C183.932 25.9704 181.908 26.4764 179.852 26.4766H105.739C103.682 26.4764 101.658 25.9705 99.8431 25.0032C98.0284 24.036 96.4794 22.6373 95.3324 20.9302C94.1855 19.2231 93.4759 17.26 93.2661 15.214C93.0562 13.1679 93.3527 11.1016 94.1293 9.19714H78.357C74.8912 9.19714 71.4592 9.87999 68.2572 11.2067C65.0551 12.5334 62.1457 14.478 59.6949 16.9294C57.2442 19.3809 55.3002 22.2912 53.9738 25.4941C52.6475 28.6971 51.9648 32.13 51.9648 35.5969V370.191C51.9648 373.658 52.6475 377.091 53.9738 380.294C55.3002 383.497 57.2442 386.407 59.6949 388.858C62.1457 391.31 65.0551 393.254 68.2572 394.581C71.4592 395.908 74.8911 396.591 78.357 396.591H208.348C211.813 396.591 215.245 395.908 218.447 394.581C221.649 393.254 224.559 391.31 227.01 388.858C229.46 386.407 231.404 383.497 232.731 380.294C234.057 377.091 234.74 373.658 234.74 370.191V35.5969C234.74 32.13 234.057 28.6971 232.731 25.4941C231.404 22.2912 229.46 19.3809 227.01 16.9294C224.559 14.478 221.649 12.5334 218.447 11.2067C215.245 9.87999 211.813 9.19714 208.348 9.19714Z" fill="white"/>
<path d="M285.956 405.845H0.748577C0.550042 405.845 0.359638 405.767 0.219253 405.626C0.0788671 405.486 0 405.295 0 405.097C0 404.898 0.0788671 404.708 0.219253 404.567C0.359638 404.427 0.550042 404.348 0.748577 404.348H285.956C286.155 404.348 286.345 404.427 286.486 404.567C286.626 404.708 286.705 404.898 286.705 405.097C286.705 405.295 286.626 405.486 286.486 405.626C286.345 405.767 286.155 405.845 285.956 405.845Z" fill="#CBCBCB"/>
<path d="M204.568 195.61C204.568 229.428 177.16 256.842 143.353 256.842C109.546 256.842 82.1387 229.428 82.1387 195.61C82.1387 161.791 109.546 134.377 143.353 134.377C177.16 134.377 204.568 161.791 204.568 195.61Z" fill="#FDFD96" stroke="#3A3A3A" stroke-width="4"/>
<path d="M137.089 219.731C135.667 219.734 134.283 219.273 133.145 218.42L133.074 218.367L118.218 206.999C117.53 206.471 116.953 205.813 116.519 205.063C116.085 204.312 115.803 203.483 115.69 202.623C115.576 201.763 115.633 200.889 115.857 200.052C116.081 199.214 116.468 198.428 116.995 197.74C117.523 197.052 118.181 196.474 118.931 196.04C119.682 195.607 120.511 195.325 121.37 195.211C122.23 195.098 123.103 195.154 123.941 195.379C124.778 195.603 125.564 195.99 126.252 196.517L135.874 203.898L158.613 174.225C159.14 173.537 159.798 172.959 160.548 172.525C161.299 172.092 162.127 171.81 162.986 171.696C163.845 171.583 164.719 171.64 165.556 171.864C166.393 172.088 167.178 172.475 167.866 173.002L167.868 173.003L167.726 173.2L167.871 173.003C169.259 174.07 170.167 175.644 170.396 177.379C170.624 179.115 170.156 180.87 169.092 182.26L142.346 217.148C141.727 217.952 140.932 218.602 140.021 219.049C139.11 219.496 138.109 219.726 137.095 219.723L137.089 219.731Z" fill="#3A3A3A"/>
<path d="M519.697 412.06C520.466 410.817 521.371 409.663 522.396 408.62C522.818 408.181 523.264 407.768 523.724 407.366C526.519 404.878 529.926 403.179 533.595 402.444C537.264 401.709 541.063 401.966 544.6 403.186C548.137 404.407 551.286 406.548 553.721 409.389C556.157 412.23 557.793 415.669 558.459 419.352C561.547 407.931 553.51 396.682 545.43 388.041C537.345 379.403 528.105 369.927 528.152 358.091C528.174 351.504 531.395 345.629 536.258 341.273C536.408 341.141 536.558 341.009 536.711 340.882C542.589 335.842 550.151 333.206 557.887 333.5C572.259 334.27 584.808 343.932 593.523 355.393C607.55 373.833 613.697 399.719 603.877 420.711C595.239 439.173 576.817 450.137 558.015 458.951C555.39 460.182 552.769 461.376 550.154 462.532C550.137 462.537 550.118 462.549 550.101 462.554C549.975 462.609 549.849 462.664 549.731 462.721C549.192 462.96 548.652 463.198 548.117 463.433L548.365 463.595L549.138 464.096C548.87 463.933 548.604 463.776 548.336 463.614C548.257 463.564 548.172 463.518 548.093 463.469C538.859 457.927 529.496 452.063 523.116 443.41C516.5 434.426 513.84 421.558 519.697 412.06Z" fill="#F1F1F1"/>
<path d="M581.305 391.196C583.35 395.849 584.706 400.776 585.329 405.82C585.82 410.318 585.635 414.864 584.782 419.308C582.948 428.439 578.949 436.996 573.121 444.259C568.724 449.774 563.648 454.71 558.014 458.951C555.388 460.182 552.768 461.376 550.153 462.532C550.136 462.537 550.117 462.549 550.1 462.554C549.974 462.609 549.848 462.664 549.73 462.721C549.19 462.96 548.65 463.198 548.115 463.433L548.363 463.595L549.136 464.096C548.868 463.933 548.603 463.776 548.335 463.614C548.255 463.564 548.171 463.518 548.092 463.469C550.124 456.358 550.422 448.864 548.963 441.614C547.503 434.365 544.327 427.57 539.702 421.801C535.052 416.105 529.121 411.588 522.395 408.62C522.817 408.181 523.263 407.768 523.722 407.366C526.313 408.556 528.794 409.973 531.136 411.601C539.511 417.391 545.799 425.724 549.071 435.367C551.991 444.116 552.356 453.516 550.122 462.465C550.586 462.162 551.051 461.85 551.503 461.541C560.106 455.738 568.034 448.769 574.006 440.222C579.157 432.999 582.453 424.62 583.604 415.823C584.749 406.213 582.345 396.763 578.056 388.189C573.32 379.015 567.352 370.533 560.318 362.977C553.253 355.212 545.264 348.342 536.531 342.518C536.334 342.386 536.196 342.182 536.145 341.95C536.094 341.718 536.134 341.476 536.257 341.273C536.35 341.088 536.513 340.947 536.71 340.882C536.81 340.856 536.914 340.853 537.015 340.874C537.116 340.894 537.211 340.937 537.293 341C538.371 341.719 539.44 342.445 540.496 343.193C549.292 349.422 557.279 356.721 564.275 364.92C571.035 372.823 577.188 381.604 581.305 391.196Z" fill="white"/>
<path d="M393.034 29.3606C400.449 29.3606 406.459 23.3483 406.459 15.9317C406.459 8.51513 400.449 2.50281 393.034 2.50281C385.62 2.50281 379.609 8.51513 379.609 15.9317C379.609 23.3483 385.62 29.3606 393.034 29.3606Z" fill="#F1F1F1"/>
<path d="M559.966 209.071C564.487 209.071 568.151 205.405 568.151 200.883C568.151 196.362 564.487 192.696 559.966 192.696C555.446 192.696 551.781 196.362 551.781 200.883C551.781 205.405 555.446 209.071 559.966 209.071Z" fill="#F1F1F1"/>
<path d="M320.421 231.534C324.942 231.534 328.606 227.869 328.606 223.347C328.606 218.825 324.942 215.16 320.421 215.16C315.901 215.16 312.236 218.825 312.236 223.347C312.236 227.869 315.901 231.534 320.421 231.534Z" fill="#F1F1F1"/>
<path d="M325.043 465H610.251C610.45 465 610.64 464.921 610.781 464.781C610.921 464.64 611 464.45 611 464.251C611 464.053 610.921 463.862 610.781 463.722C610.64 463.581 610.45 463.502 610.251 463.502H325.043C324.845 463.502 324.655 463.581 324.514 463.722C324.374 463.862 324.295 464.053 324.295 464.251C324.295 464.45 324.374 464.64 324.514 464.781C324.655 464.921 324.845 465 325.043 465Z" fill="#CBCBCB"/>
<path d="M578.777 72.3595C579.151 69.6998 578.537 66.9952 577.051 64.758C575.565 62.5209 573.311 60.9066 570.715 60.2212C568.118 59.5358 565.361 59.8268 562.965 61.0391C560.569 62.2513 558.701 64.3007 557.714 66.7988L534.57 93.3392L541.361 112.311L564.637 81.2998C566.155 81.7864 567.762 81.9341 569.345 81.7323C570.927 81.5305 572.445 80.9841 573.793 80.1318C575.141 79.2794 576.286 78.1417 577.147 76.7988C578.008 75.456 578.564 73.9406 578.777 72.3595Z" fill="#FFB7B7"/>
<path d="M482.841 175.629L559.667 93.6141L549.304 77.1346L452.945 158.651L482.841 175.629Z" fill="#3F3D56"/>
<path d="M465.695 125.797C480.578 125.797 492.644 113.728 492.644 98.8406C492.644 83.9529 480.578 71.884 465.695 71.884C450.811 71.884 438.746 83.9529 438.746 98.8406C438.746 113.728 450.811 125.797 465.695 125.797Z" fill="#2F2E41"/>
<path d="M467.861 83.6125C473.66 77.7303 480.678 73.1912 488.42 70.3146C493.389 68.473 498.798 67.3352 503.994 68.381C509.189 69.4268 514.103 73.0221 515.552 78.1211C516.737 82.2907 515.513 86.78 513.674 90.705C511.835 94.63 509.379 98.2696 507.892 102.341C506.374 106.495 505.917 110.963 506.564 115.339C507.21 119.714 508.939 123.859 511.592 127.397C514.246 130.935 517.741 133.753 521.761 135.597C525.78 137.441 530.196 138.252 534.608 137.955C529.503 138.64 524.797 141.04 519.808 142.317C514.818 143.594 508.929 143.508 505.221 139.932C501.297 136.149 501.219 129.998 501.409 124.55C501.691 116.452 501.973 108.354 502.255 100.255C502.398 96.1254 502.521 91.8631 501.032 88.0084C499.543 84.1537 496.005 80.7783 491.874 80.8134C488.743 80.84 485.971 82.7373 483.461 84.6083C480.95 86.4794 478.292 88.4756 475.173 88.7539C472.055 89.0322 468.494 86.7236 468.727 83.6004L467.861 83.6125Z" fill="#2F2E41"/>
<path d="M363.342 279.841C360.754 280.56 357.993 280.304 355.582 279.123C353.17 277.942 351.276 275.917 350.257 273.432C349.239 270.947 349.167 268.174 350.055 265.639C350.944 263.105 352.731 260.984 355.078 259.68L378.359 233.26L398.05 237.515L370.355 264.65C371.036 266.092 371.392 267.667 371.399 269.262C371.405 270.857 371.062 272.435 370.394 273.883C369.725 275.331 368.747 276.615 367.529 277.645C366.31 278.674 364.881 279.424 363.342 279.841Z" fill="#FFB7B7"/>
<path d="M439.938 185.255L381.912 258.112L364.225 249.99L432.427 143.777L439.938 185.255Z" fill="#3F3D56"/>
<path d="M393.638 405.255L379.809 405.037L381.472 452.186H393.636L393.638 405.255Z" fill="#FFB7B7"/>
<path d="M396.738 448.214L372.783 448.213H372.782C368.733 448.213 364.85 449.822 361.987 452.685C359.124 455.549 357.516 459.433 357.516 463.483V463.979L396.737 463.981L396.738 448.214Z" fill="#2F2E41"/>
<path d="M485.201 392.75L470.094 402.451L500.312 438.816L510.548 432.243L485.201 392.75Z" fill="#FFB7B7"/>
<path d="M511.015 427.223L490.857 440.168L490.856 440.169C487.449 442.357 485.051 445.809 484.188 449.766C483.326 453.723 484.07 457.861 486.258 461.269L486.525 461.687L519.531 440.491L511.015 427.223Z" fill="#2F2E41"/>
<path d="M490.583 248.779C490.583 248.779 457.017 137.263 446.229 135.756C435.442 134.249 418.062 164.37 418.062 164.37C395.528 193.13 372.291 286.289 372.291 286.289C372.291 286.289 411.027 288.713 439.344 303.783C467.66 318.853 501.077 303.02 501.077 303.02L490.583 248.779Z" fill="#3F3D56"/>
<path opacity="0.1" d="M490.583 248.779C490.583 248.779 457.017 137.263 446.229 135.756C435.442 134.249 422.476 164.676 422.476 164.676C411.248 211.101 372.291 286.289 372.291 286.289C372.291 286.289 411.027 288.713 439.344 303.783C467.66 318.853 501.077 303.02 501.077 303.02L490.583 248.779Z" fill="black"/>
<path d="M463.044 215.414V271.45L469.637 352.622L502.575 414.023L486.854 425.255L441.94 366.849L424.175 308.856L396.277 437.236L375.316 435.738L389.873 257.742L417.496 207.64L463.044 215.414Z" fill="#2F2E41"/>
<path d="M429.202 161.215C418.722 171.698 428.454 182.93 428.454 182.93L416.477 209.886L463.637 222.616L480.118 148.951L468.889 136.97C446.432 136.221 446.42 135.756 446.42 135.756C442.485 139.608 429.202 161.215 429.202 161.215Z" fill="#FDFD96"/>
<path d="M482.017 141.319C479.875 139.738 477.44 138.597 474.855 137.963C472.269 137.329 469.583 137.215 466.953 137.627C464.323 138.039 461.8 138.968 459.532 140.362C457.263 141.756 455.294 143.586 453.738 145.747C441.882 162.259 430.919 188.923 446.024 222.177C470.277 275.574 491.382 302.908 499.963 302.905C500.337 302.908 500.71 302.85 501.065 302.732C506.347 300.94 513.983 292 515.365 284.122C515.86 281.303 515.742 277.375 512.371 274.678C502.688 266.931 485.304 242.809 479.881 211.058C476.885 193.514 482.696 177.533 488.099 167.217C490.381 162.948 491.049 157.999 489.98 153.278C488.911 148.557 486.176 144.379 482.277 141.511L482.017 141.319Z" fill="#3F3D56"/>
<path d="M467.081 123.149C476.695 117.892 480.228 105.836 474.973 96.2195C469.717 86.6035 457.664 83.0694 448.051 88.3261C438.438 93.5827 434.905 105.639 440.16 115.255C445.415 124.871 457.468 128.405 467.081 123.149Z" fill="#FFB7B7"/>
<path d="M429.668 104.237H458.313L458.607 100.124L460.075 104.237H464.486L465.068 96.084L467.979 104.237H476.513V103.833C476.507 98.1571 474.25 92.7152 470.237 88.7015C466.225 84.6878 460.785 82.4301 455.11 82.4237H451.071C445.397 82.4301 439.957 84.6878 435.944 88.7015C431.931 92.7152 429.674 98.1571 429.668 103.833V104.237Z" fill="#2F2E41"/>
<path d="M472.186 119.024L484.41 115.056V85.3623H461.32L461.892 85.9332C469.845 93.8786 478.691 122.068 472.186 119.024Z" fill="#2F2E41"/>
</g>
<defs>
<clipPath id="clip0_74_1389">
<rect width="611" height="465" fill="white"/>
</clipPath>
</defs>
</svg>
