<svg width="546" height="524" viewBox="0 0 546 524" fill="none" xmlns="http://www.w3.org/2000/svg">
<g clip-path="url(#clip0_368_1278)">
<path d="M491.304 507.168C493.37 507.297 494.512 504.73 492.949 503.234L492.793 502.616C492.813 502.567 492.834 502.517 492.855 502.468C494.944 497.486 502.025 497.52 504.096 502.509C505.935 506.938 508.276 511.373 508.852 516.055C509.11 518.122 508.994 520.228 508.536 522.256C512.844 512.845 515.111 502.569 515.111 492.235C515.111 489.639 514.969 487.042 514.678 484.452C514.439 482.334 514.11 480.228 513.683 478.142C511.377 466.865 506.385 456.124 499.183 447.152C495.721 445.26 492.834 442.302 491.09 438.756C490.464 437.477 489.973 436.101 489.74 434.7C490.134 434.751 491.226 428.751 490.929 428.383C491.478 427.55 492.46 427.135 493.06 426.322C496.042 422.279 500.151 422.985 502.296 428.48C506.879 430.792 506.923 434.628 504.111 438.317C502.322 440.663 502.077 443.839 500.507 446.351C500.669 446.558 500.837 446.758 500.998 446.965C503.959 450.763 506.52 454.845 508.679 459.134C508.069 454.367 508.97 448.625 510.506 444.924C512.254 440.707 515.53 437.155 518.416 433.509C521.882 429.13 528.989 431.041 529.6 436.592C529.606 436.646 529.612 436.7 529.617 436.753C529.189 436.995 528.769 437.252 528.359 437.523C526.019 439.071 526.828 442.697 529.6 443.125L529.662 443.135C529.507 444.678 529.243 446.209 528.855 447.714C532.557 462.03 524.565 467.244 513.154 467.478C512.902 467.607 512.656 467.737 512.404 467.859C513.561 471.115 514.484 474.454 515.169 477.838C515.782 480.829 516.209 483.851 516.448 486.887C516.745 490.717 516.719 494.567 516.396 498.39L516.415 498.255C517.236 494.044 519.522 490.11 522.842 487.384C527.788 483.322 534.775 481.826 540.11 478.56C542.679 476.988 545.97 479.02 545.521 481.997L545.5 482.14C544.705 482.463 543.93 482.837 543.181 483.257C542.752 483.499 542.332 483.756 541.922 484.027C539.583 485.574 540.391 489.201 543.163 489.629L543.226 489.639C543.271 489.645 543.31 489.652 543.355 489.658C541.992 492.894 540.094 495.897 537.717 498.487C535.402 510.984 525.461 512.17 514.826 508.531H514.82C513.657 513.595 511.959 518.542 509.776 523.257H491.755C491.691 523.057 491.633 522.85 491.575 522.65C493.241 522.753 494.92 522.656 496.561 522.353C495.224 520.712 493.887 519.059 492.55 517.418C492.518 517.386 492.492 517.354 492.466 517.321C491.788 516.482 491.103 515.649 490.425 514.809L490.425 514.808C490.382 512.23 490.692 509.661 491.304 507.168Z" fill="#F2F2F2"/>
<path d="M159.754 522.311C159.754 522.971 160.284 523.501 160.944 523.501H544.234C544.894 523.501 545.424 522.971 545.424 522.311C545.424 521.651 544.894 521.121 544.234 521.121H160.944C160.284 521.121 159.754 521.651 159.754 522.311Z" fill="#CCCCCC"/>
<path d="M217.913 522.994H41.4879C19.976 522.994 2.47461 505.492 2.47461 483.98V104.831C2.47461 83.3188 19.976 65.8174 41.4879 65.8174H217.913C239.424 65.8174 256.926 83.3188 256.926 104.831V483.98C256.926 505.492 239.424 522.994 217.913 522.994Z" fill="#3F3D56"/>
<path d="M256.926 205.281C256.016 205.281 255.275 206.021 255.275 206.931V259.746C255.275 260.656 256.016 261.396 256.926 261.396C257.836 261.396 258.576 260.656 258.576 259.746V206.931C258.576 206.021 257.836 205.281 256.926 205.281Z" fill="#3F3D56"/>
<path d="M253.213 104.831V483.973C253.213 502.698 238.64 518.014 220.213 519.202H220.204C219.932 519.219 219.66 519.235 219.379 519.244C218.892 519.268 218.405 519.277 217.91 519.277C217.91 519.277 216.095 519.145 212.777 518.897C209.427 518.649 204.55 518.278 198.468 517.791C196.644 517.651 194.721 517.494 192.691 517.329C188.648 516.999 184.208 516.636 179.446 516.223C177.548 516.066 175.584 515.893 173.579 515.72C163.33 514.837 151.851 513.805 139.745 512.633C137.698 512.444 135.635 512.246 133.556 512.039C133.011 511.982 132.458 511.932 131.905 511.874C123.273 511.024 6.18945 488.397 6.18945 483.973V104.831C6.18945 85.331 21.9926 69.5278 41.4927 69.5278H62.569C65.9359 69.5278 68.6426 72.1521 68.9315 75.5107C68.9562 75.7336 68.981 75.9563 69.0223 76.1792C69.6329 79.5544 72.7275 81.9062 76.1604 81.9062H183.242C186.675 81.9062 189.77 79.5544 190.381 76.1792C190.422 75.9563 190.447 75.7336 190.471 75.5107C190.76 72.1521 193.467 69.5278 196.834 69.5278H217.91C237.41 69.5278 253.213 85.331 253.213 104.831Z" fill="white"/>
<path d="M1.65045 165.67C0.7402 165.67 0 166.41 0 167.32V180.524C0 181.434 0.74021 182.175 1.65045 182.175C2.56069 182.175 3.3009 181.434 3.3009 180.524V167.32C3.3009 166.41 2.56069 165.67 1.65045 165.67Z" fill="#3F3D56"/>
<path d="M1.65045 205.281C0.7402 205.281 0 206.021 0 206.931V232.513C0 233.424 0.74021 234.164 1.65045 234.164C2.56069 234.164 3.3009 233.424 3.3009 232.513V206.931C3.3009 206.021 2.56069 205.281 1.65045 205.281Z" fill="#3F3D56"/>
<path d="M1.65045 241.591C0.7402 241.591 0 242.331 0 243.241V268.823C0 269.734 0.74021 270.474 1.65045 270.474C2.56069 270.474 3.3009 269.734 3.3009 268.823V243.241C3.3009 242.331 2.56069 241.591 1.65045 241.591Z" fill="#3F3D56"/>
<path d="M61.9947 75.3076H30.4313C30.26 75.3076 30.1211 75.4465 30.1211 75.6178V79.1235C30.1211 79.2949 30.26 79.4338 30.4313 79.4338H61.9947C62.1661 79.4338 62.3049 79.2949 62.3049 79.1235V75.6178C62.3049 75.4465 62.1661 75.3076 61.9947 75.3076Z" fill="#E6E6E6"/>
<path d="M202.049 79.4337C203.872 79.4337 205.35 77.9559 205.35 76.1328C205.35 74.3098 203.872 72.8319 202.049 72.8319C200.226 72.8319 198.748 74.3098 198.748 76.1328C198.748 77.9559 200.226 79.4337 202.049 79.4337Z" fill="#E6E6E6"/>
<path d="M211.127 79.4337C212.95 79.4337 214.428 77.9559 214.428 76.1328C214.428 74.3098 212.95 72.8319 211.127 72.8319C209.304 72.8319 207.826 74.3098 207.826 76.1328C207.826 77.9559 209.304 79.4337 211.127 79.4337Z" fill="#E6E6E6"/>
<path d="M220.203 79.4337C222.026 79.4337 223.504 77.9559 223.504 76.1328C223.504 74.3098 222.026 72.8319 220.203 72.8319C218.38 72.8319 216.902 74.3098 216.902 76.1328C216.902 77.9559 218.38 79.4337 220.203 79.4337Z" fill="#E6E6E6"/>
<path d="M199.289 298.516H59.2891C57.0835 298.516 55.2891 296.721 55.2891 294.516C55.2891 292.31 57.0835 290.516 59.2891 290.516H199.289C201.495 290.516 203.289 292.31 203.289 294.516C203.289 296.721 201.495 298.516 199.289 298.516Z" fill="#E6E6E6"/>
<path d="M187.291 395.516C187.291 427.272 161.547 453.016 129.791 453.016C98.0346 453.016 72.291 427.272 72.291 395.516C72.291 363.759 98.0346 338.016 129.791 338.016C161.547 338.016 187.291 363.759 187.291 395.516Z" fill="#FDFD96" stroke="black"/>
<path d="M139.008 376.578C134.113 376.779 128.579 377.115 124.961 380.871C121.818 384.134 121.129 388.976 124.317 392.46C127.512 395.953 132.481 396.426 136.165 399.15C140.491 402.35 139.857 408.68 135.671 411.712C130.735 415.288 124.362 413.621 119.849 410.219C118.693 409.347 117.571 411.299 118.714 412.161C122.757 415.209 128.032 416.906 133.031 415.448C137.543 414.131 141.04 410.453 141.396 405.668C141.565 403.384 140.916 401.067 139.496 399.264C137.997 397.36 135.838 396.189 133.655 395.236C129.898 393.596 123.429 391.473 124.521 386.132C125.845 379.659 133.725 379.045 139.008 378.828C140.451 378.769 140.458 376.518 139.008 376.578Z" fill="black"/>
<path d="M129.929 373.516L129.713 422.909C129.707 424.357 131.957 424.359 131.963 422.909L132.179 373.516C132.185 372.068 129.935 372.066 129.929 373.516Z" fill="black"/>
<path d="M437.085 0H151.125C140.635 0 132.105 8.52997 132.105 19.02V214.98C132.105 225.47 140.635 234 151.125 234H437.085C447.575 234 456.105 225.47 456.105 214.98V19.02C456.105 8.52997 447.575 0 437.085 0Z" fill="white"/>
<path d="M324.291 84.5157C324.291 101.913 310.188 116.016 292.791 116.016C275.394 116.016 261.291 101.913 261.291 84.5157C261.291 67.1188 275.394 53.0157 292.791 53.0157C310.188 53.0157 324.291 67.1188 324.291 84.5157Z" fill="#FDFD96" stroke="black"/>
<path d="M298.862 70.2358C294.901 70.399 290.442 70.6501 287.445 73.5979C284.963 76.0397 284.095 79.841 286.376 82.716C288.777 85.743 292.771 86.3174 295.906 88.2518C297.854 89.454 299.145 91.2754 299.187 93.616C299.226 95.8074 298.215 97.8548 296.524 99.2282C292.376 102.598 286.719 101.203 282.795 98.256C282.023 97.6762 281.274 98.9779 282.038 99.5512C285.288 101.992 289.473 103.41 293.517 102.359C297.239 101.393 300.238 98.4643 300.641 94.5513C301.066 90.427 298.358 87.6188 294.847 86.0077C291.637 84.5351 286.008 82.9661 286.539 78.3913C287.213 72.5747 294.334 71.9224 298.862 71.7358C299.824 71.6961 299.829 70.1959 298.862 70.2358Z" fill="black"/>
<path d="M291.977 67.5157L291.797 108.674C291.793 109.639 293.293 109.64 293.297 108.674L293.477 67.5157C293.481 66.5504 291.981 66.5491 291.977 67.5157Z" fill="black"/>
<path d="M437.085 0H151.125C140.635 0 132.105 8.52997 132.105 19.02V214.98C132.105 225.47 140.635 234 151.125 234H437.085C447.575 234 456.105 225.47 456.105 214.98V19.02C456.105 8.52997 447.575 0 437.085 0ZM454.105 214.98C454.105 224.37 446.475 232 437.085 232H151.125C141.735 232 134.105 224.37 134.105 214.98V19.02C134.105 9.63001 141.735 2 151.125 2H437.085C446.475 2 454.105 9.63 454.105 19.02V214.98Z" fill="#3F3D56"/>
<path d="M261.136 19.35H233.076C231.666 19.35 230.516 20.5 230.516 21.91C230.516 23.33 231.666 24.48 233.076 24.48H261.136C262.546 24.48 263.696 23.33 263.696 21.91C263.696 20.5 262.546 19.35 261.136 19.35Z" fill="#E6E6E6"/>
<path d="M308.136 19.35H280.076C278.666 19.35 277.516 20.5 277.516 21.91C277.516 23.33 278.666 24.48 280.076 24.48H308.136C309.546 24.48 310.696 23.33 310.696 21.91C310.696 20.5 309.546 19.35 308.136 19.35Z" fill="#E6E6E6"/>
<path d="M355.136 19.35H327.076C325.666 19.35 324.516 20.5 324.516 21.91C324.516 23.33 325.666 24.48 327.076 24.48H355.136C356.546 24.48 357.696 23.33 357.696 21.91C357.696 20.5 356.546 19.35 355.136 19.35Z" fill="#E6E6E6"/>
<path d="M186.795 135.016H401.415C410.069 135.016 417.105 142.052 417.105 150.706V165.326C417.105 173.98 410.069 181.016 401.415 181.016H186.795C178.142 181.016 171.105 173.98 171.105 165.326V150.706C171.105 142.052 178.142 135.016 186.795 135.016Z" fill="#FDFD96" stroke="black"/>
<path d="M276.8 165V152.54H281.22C282.207 152.54 283.027 152.713 283.68 153.06C284.333 153.393 284.82 153.847 285.14 154.42C285.46 154.98 285.62 155.6 285.62 156.28C285.62 156.787 285.527 157.267 285.34 157.72C285.167 158.16 284.9 158.547 284.54 158.88C284.193 159.213 283.747 159.48 283.2 159.68C282.667 159.867 282.04 159.96 281.32 159.96H279.68V165H276.8ZM279.68 157.66H281.16C281.467 157.66 281.733 157.6 281.96 157.48C282.2 157.36 282.387 157.193 282.52 156.98C282.653 156.767 282.72 156.527 282.72 156.26C282.72 155.98 282.653 155.74 282.52 155.54C282.387 155.34 282.207 155.187 281.98 155.08C281.753 154.973 281.487 154.92 281.18 154.92H279.68V157.66ZM296.06 162.58H290.96L291.3 160.62H295.66L296.06 162.58ZM293.62 157.38L291.6 165H288.8L292.76 152.54H294.46L298.42 165H295.58L293.62 157.38ZM305.02 165V160.08L301.38 152.54H304.2L306.44 157.18L308.4 152.54H311.14L307.78 160.1V165H305.02Z" fill="#101010"/>
<path d="M73.1791 211.492L64.9492 207.593C68.3248 212.304 71.2334 219.661 72.7906 225.516C75.4271 220.062 79.6773 213.39 83.8843 209.404L75.1862 211.641C80.546 185.374 100.705 166.516 123.791 166.516V164.516C99.6774 164.516 78.6516 184.163 73.1791 211.492Z" fill="#3F3D56"/>
<path d="M111.059 251.516H59.0586C56.853 251.516 55.0586 249.721 55.0586 247.516C55.0586 245.31 56.853 243.516 59.0586 243.516H111.059C113.264 243.516 115.059 245.31 115.059 247.516C115.059 249.721 113.264 251.516 111.059 251.516Z" fill="#E6E6E6"/>
<path d="M456.979 238.488L456.454 279.327L446.293 315.732L438.17 312.702L441.777 279.333L441.302 234.176L456.979 238.488Z" fill="#FFB6B6"/>
<path d="M446.259 321.603C447.212 316.368 445.465 311.665 442.357 311.1C439.249 310.534 435.956 314.319 435.003 319.553C434.05 324.788 435.797 329.491 438.905 330.057C442.013 330.622 445.306 326.838 446.259 321.603Z" fill="#FFB6B6"/>
<path d="M444.648 189.861C444.648 189.861 462.056 190.101 462.041 199.348C462.033 204.569 460.911 251.971 457.791 280.768C455.385 302.974 450.791 308.768 450.791 308.768L439.791 283.768L444.648 189.861Z" fill="#E6E6E6"/>
<path d="M444.202 273.299H385.414C390.342 262.303 393.371 251.832 388.635 243.502L444.202 240.281C441.425 251.525 441.085 262.56 444.202 273.299Z" fill="#E6E6E6"/>
<path d="M437.096 175.574L413.779 174L404.131 185.809L399.24 186.679C391.908 187.985 386.687 194.391 387.015 201.681L388.917 244.021L444.648 248L458 192.864L441.92 186.596L437.096 175.574Z" fill="#E6E6E6"/>
<path d="M294.531 188.922C296.188 190.412 297.371 192.154 297.996 193.842L314.677 207.045L308.163 214.799L291.943 200.571C290.197 200.128 288.341 199.135 286.684 197.645C282.899 194.239 281.587 189.526 283.754 187.118C285.921 184.709 290.746 185.517 294.531 188.922Z" fill="#FFB6B6"/>
<path d="M412.467 200.037L348.551 243.196L302.734 211.312L309.613 198.852L345.673 219.809L378.928 194.274C390.77 183.151 405.611 185.307 412.467 200.037Z" fill="#E6E6E6"/>
<path d="M423.89 170.628C433.459 170.628 441.216 162.871 441.216 153.302C441.216 143.734 433.459 135.976 423.89 135.976C414.322 135.976 406.564 143.734 406.564 153.302C406.564 162.871 414.322 170.628 423.89 170.628Z" fill="#FFB6B6"/>
<path d="M447.442 149.046V152.406L427.902 146.906L413.252 149.976C413.082 147.746 412.422 145.556 411.322 143.616C412.087 146.727 412.173 149.134 411.362 150.376L409.392 150.786C409.072 149.916 408.452 149.156 407.642 148.696C407.562 148.646 407.462 148.606 407.372 148.636C407.232 148.686 407.222 148.866 407.222 149.006C407.242 149.746 407.262 150.486 407.292 151.226L401.632 152.406V149.046C396.202 136.828 410.514 126.255 424.542 126.146C430.872 126.096 436.592 128.706 440.742 132.846C444.882 136.996 447.442 142.716 447.442 149.046Z" fill="#2F2E41"/>
<path d="M458.433 188.444L456.958 188.322C457.063 187.839 457.168 187.363 457.264 186.88C458.082 182.831 456.282 177.676 456.149 173.785C455.455 177.896 456.643 182.953 455.414 186.856C455.277 187.29 449.937 190.088 449.791 190.516C443.882 188.355 437.728 181.45 430.759 185.483C426.638 187.868 421.936 186.822 417.257 185.73C416.098 185.46 415.937 179.74 414.791 179.516C412.738 179.113 409.723 184.313 407.791 184.516L415.791 153.516C415.791 136.652 414.229 118.958 435.591 124.921C440.964 126.421 446.281 127.597 450.247 132.031C454.212 136.472 457.035 142.677 458.036 149.744C458.639 154.007 462.403 168.483 458.433 188.444Z" fill="#2F2E41"/>
<path d="M444.64 500.18L435.103 500.405L429.787 457.561L443.861 457.228L444.64 500.18Z" fill="#FFB7B7"/>
<path d="M411.92 520.076C411.92 521.688 413.063 522.994 414.474 522.994H433.403C433.403 522.994 435.266 515.506 442.861 512.283L443.385 522.994H453.15L451.967 505.772C451.967 505.772 454.579 496.558 449.154 491.848C443.729 487.138 448.123 487.794 448.123 487.794L445.989 477.135L431.233 478.87L431.124 495.602L423.963 512.211L413.46 517.399C412.525 517.861 411.92 518.913 411.92 520.076Z" fill="#2F2E41"/>
<path d="M415.625 493.198L406.457 495.836L390.443 455.743L403.972 451.85L415.625 493.198Z" fill="#FFB7B7"/>
<path d="M389.027 520.746C389.435 522.304 390.873 523.277 392.237 522.92L410.546 518.116C410.546 518.116 410.448 510.401 416.977 505.356L420.202 515.583L429.647 513.105L424.132 496.747C424.132 496.747 424.321 487.172 417.878 483.993C411.436 480.814 415.852 480.333 415.852 480.333L411.083 470.565L397.251 475.988L401.392 492.2L398.68 510.081L389.837 517.765C389.05 518.449 388.731 519.621 389.027 520.746Z" fill="#2F2E41"/>
<path d="M438.79 270.768L444.79 272.768C454.171 290.093 458.149 313.101 457.622 340.846L446.964 465.457H429.527L416.767 326.635L394.267 378.74L410.729 465.457L394.267 467.136L361.109 376.964L384.201 272.162L438.79 270.768Z" fill="#2F2E41"/>
</g>
<defs>
<clipPath id="clip0_368_1278">
<rect width="545.563" height="523.501" fill="white"/>
</clipPath>
</defs>
</svg>
